# xmcd
#
# Track frame offsets:
#       150
#       13824
#       27817
#       43571
#       57898
#       71945
#       84633
#       99888
#       114379
#       127274
#       142199
#       155721
#       169631
#       184178
#       199581
#       213213
#       228285
#       241034
#       255284
#       269500
#
# Disc length: 3789 seconds
#
# Revision: 0
# Processed by: cddbd v1.5.1PL2 Copyright (c) Steve Scherf et al.
# Submitted via: CD-DA_X-Tractor v0.24
#
DISCID=150ecb14
DTITLE=Billie Holiday - Billie Holiday
DYEAR=2001
DGENRE=
TTITLE0=What a Little Moonlight Can Do
TTITLE1=Miss Brown to You
TTITLE2=Any Old Time
TTITLE3=Strange Fruit
TTITLE4=I Gotta Right to Sing the Blues
TTITLE5=You're A Lucky Guy
TTITLE6=Yesterdays
TTITLE7=I'm in a Low Down Groove
TTITLE8=St Louis Blues
TTITLE9=Solitude
TTITLE10=My Old Flame
TTITLE11=I Love My Man (Billie's Blues)
TTITLE12=Baby I Don't Cry Over You
TTITLE13=Georgia On My Mind
TTITLE14=My Man
TTITLE15=My Sweet Hunk O'Trash
TTITLE16=Them There Eyes
TTITLE17=God Bless The Child
TTITLE18=More Than You Know
TTITLE19=Travelin' Light
EXTD=
EXTT0=
EXTT1=
EXTT2=
EXTT3=
EXTT4=
EXTT5=
EXTT6=
EXTT7=
EXTT8=
EXTT9=
EXTT10=
EXTT11=
EXTT12=
EXTT13=
EXTT14=
EXTT15=
EXTT16=
EXTT17=
EXTT18=
EXTT19=
PLAYORDER=
